# xmcd CD database file generated by LOLA_Freedb v0.9beta0
# 
# Track frame offsets:
#      150
#      22578
#      43260
#      66407
#      85421
#      105617
#      122198
#      143735
# 
# Disc length: 2212 seconds
# 
# Revision: 0 
# Processed by: cddbd v1.5.2PL0 Copyright (c) Steve Scherf et al.
# Submitted via: LOLA_Freedb v0.9beta0
# 
DISCID=6a08a208
DTITLE=Corky Hale - Harp Beat
DYEAR=1986
DGENRE=
TTITLE0=Nothing Higher
TTITLE1=Paradise
TTITLE2=Roof Garden
TTITLE3=So Much In Love
TTITLE4=Up In Smoke
TTITLE5=I'm The One
TTITLE6=Yesterdays
TTITLE7=The Best Thing
EXTD=
EXTT0=
EXTT1=
EXTT2=
EXTT3=
EXTT4=
EXTT5=
EXTT6=
EXTT7=
PLAYORDER=
